<?xml version="1.0" encoding="UTF-8"?><svg xmlns="http://www.w3.org/2000/svg" xmlns:xlink="http://www.w3.org/1999/xlink" stroke-dasharray="none" shape-rendering="auto" font-family="Helvetica, 'Nimbus Sans L', 'Liberation Sans', Arial, sans-serif" width="1941" text-rendering="auto" fill-opacity="1" contentScriptType="text/ecmascript" color-interpolation="auto" color-rendering="auto" preserveAspectRatio="xMidYMid meet" font-size="12" viewBox="0 0 1941 941" fill="black" stroke="black" image-rendering="auto" stroke-miterlimit="10" zoomAndPan="magnify" version="1.0" stroke-linecap="square" stroke-linejoin="miter" contentStyleType="text/css" font-style="normal" height="941" stroke-width="1" stroke-dashoffset="0" font-weight="normal" stroke-opacity="1">
<!--Generated by the Batik Graphics2D SVG Generator-->
<defs id="genericDefs"/>
<g>
<defs id="defs1">
<linearGradient x1="10" x2="10" y1="110" gradientUnits="userSpaceOnUse" y2="931" xlink:type="simple" xlink:actuate="onLoad" id="linearGradient1" xlink:show="other" spreadMethod="pad">
<stop stop-opacity="1" stop-color="white" offset="0%"/>
<stop stop-opacity="1" stop-color="white" offset="100%"/>
</linearGradient>
<linearGradient x1="410" x2="410" y1="206" gradientUnits="userSpaceOnUse" y2="367" xlink:type="simple" xlink:actuate="onLoad" id="linearGradient2" xlink:show="other" spreadMethod="pad">
<stop stop-opacity="1" stop-color="white" offset="0%"/>
<stop stop-opacity="1" stop-color="rgb(195,215,221)" offset="100%"/>
</linearGradient>
<linearGradient x1="70" x2="70" y1="486" gradientUnits="userSpaceOnUse" y2="627" xlink:type="simple" xlink:actuate="onLoad" id="linearGradient3" xlink:show="other" spreadMethod="pad">
<stop stop-opacity="1" stop-color="white" offset="0%"/>
<stop stop-opacity="1" stop-color="rgb(195,215,221)" offset="100%"/>
</linearGradient>
<linearGradient x1="670" x2="670" y1="486" gradientUnits="userSpaceOnUse" y2="667" xlink:type="simple" xlink:actuate="onLoad" id="linearGradient4" xlink:show="other" spreadMethod="pad">
<stop stop-opacity="1" stop-color="white" offset="0%"/>
<stop stop-opacity="1" stop-color="rgb(195,215,221)" offset="100%"/>
</linearGradient>
<linearGradient x1="1350" x2="1350" y1="746" gradientUnits="userSpaceOnUse" y2="847" xlink:type="simple" xlink:actuate="onLoad" id="linearGradient5" xlink:show="other" spreadMethod="pad">
<stop stop-opacity="1" stop-color="white" offset="0%"/>
<stop stop-opacity="1" stop-color="white" offset="100%"/>
</linearGradient>
<linearGradient x1="70" x2="70" y1="746" gradientUnits="userSpaceOnUse" y2="867" xlink:type="simple" xlink:actuate="onLoad" id="linearGradient6" xlink:show="other" spreadMethod="pad">
<stop stop-opacity="1" stop-color="white" offset="0%"/>
<stop stop-opacity="1" stop-color="white" offset="100%"/>
</linearGradient>
<linearGradient x1="670" x2="670" y1="746" gradientUnits="userSpaceOnUse" y2="847" xlink:type="simple" xlink:actuate="onLoad" id="linearGradient7" xlink:show="other" spreadMethod="pad">
<stop stop-opacity="1" stop-color="white" offset="0%"/>
<stop stop-opacity="1" stop-color="white" offset="100%"/>
</linearGradient>
<linearGradient x1="1370" x2="1370" y1="166" gradientUnits="userSpaceOnUse" y2="507" xlink:type="simple" xlink:actuate="onLoad" id="linearGradient8" xlink:show="other" spreadMethod="pad">
<stop stop-opacity="1" stop-color="white" offset="0%"/>
<stop stop-opacity="1" stop-color="white" offset="100%"/>
</linearGradient>
<linearGradient x1="1610" x2="1610" y1="382" gradientUnits="userSpaceOnUse" y2="463" xlink:type="simple" xlink:actuate="onLoad" id="linearGradient9" xlink:show="other" spreadMethod="pad">
<stop stop-opacity="1" stop-color="white" offset="0%"/>
<stop stop-opacity="1" stop-color="rgb(195,215,221)" offset="100%"/>
</linearGradient>
<linearGradient x1="1410" x2="1410" y1="222" gradientUnits="userSpaceOnUse" y2="323" xlink:type="simple" xlink:actuate="onLoad" id="linearGradient10" xlink:show="other" spreadMethod="pad">
<stop stop-opacity="1" stop-color="white" offset="0%"/>
<stop stop-opacity="1" stop-color="rgb(195,215,221)" offset="100%"/>
</linearGradient>
<linearGradient x1="1410" x2="1410" y1="382" gradientUnits="userSpaceOnUse" y2="444" xlink:type="simple" xlink:actuate="onLoad" id="linearGradient11" xlink:show="other" spreadMethod="pad">
<stop stop-opacity="1" stop-color="white" offset="0%"/>
<stop stop-opacity="1" stop-color="rgb(195,215,221)" offset="100%"/>
</linearGradient>
<linearGradient x1="650" x2="650" y1="10" gradientUnits="userSpaceOnUse" y2="90" xlink:type="simple" xlink:actuate="onLoad" id="linearGradient12" xlink:show="other" spreadMethod="pad">
<stop stop-opacity="1" stop-color="white" offset="0%"/>
<stop stop-opacity="1" stop-color="white" offset="100%"/>
</linearGradient>
<linearGradient x1="1090" x2="1090" y1="10" gradientUnits="userSpaceOnUse" y2="90" xlink:type="simple" xlink:actuate="onLoad" id="linearGradient13" xlink:show="other" spreadMethod="pad">
<stop stop-opacity="1" stop-color="white" offset="0%"/>
<stop stop-opacity="1" stop-color="white" offset="100%"/>
</linearGradient>
<clipPath clipPathUnits="userSpaceOnUse" id="clipPath1">
<path d="M10 110 L10 930 L1930 930 L1930 137 L196 137 L196 110 Z"/>
</clipPath>
<clipPath clipPathUnits="userSpaceOnUse" id="clipPath2">
<path d="M7 107 L1934 107 L1934 934 L7 934 L7 107 Z"/>
</clipPath>
<clipPath clipPathUnits="userSpaceOnUse" id="clipPath3">
<path d="M15 112 L193 112 L193 135 L15 135 L15 112 Z"/>
</clipPath>
<clipPath clipPathUnits="userSpaceOnUse" id="clipPath4">
<path d="M410 206 L410 366 L1050 366 L1050 206 Z"/>
</clipPath>
<clipPath clipPathUnits="userSpaceOnUse" id="clipPath5">
<path d="M679 208 L784 208 L784 232 L679 232 L679 208 Z"/>
</clipPath>
<clipPath clipPathUnits="userSpaceOnUse" id="clipPath6">
<path d="M415 233 L980 233 L980 256 L415 256 L415 233 Z"/>
</clipPath>
<clipPath clipPathUnits="userSpaceOnUse" id="clipPath7">
<path d="M415 254 L1021 254 L1021 277 L415 277 L415 254 Z"/>
</clipPath>
<clipPath clipPathUnits="userSpaceOnUse" id="clipPath8">
<path d="M415 275 L882 275 L882 298 L415 298 L415 275 Z"/>
</clipPath>
<clipPath clipPathUnits="userSpaceOnUse" id="clipPath9">
<path d="M415 296 L593 296 L593 320 L415 320 L415 296 Z"/>
</clipPath>
<clipPath clipPathUnits="userSpaceOnUse" id="clipPath10">
<path d="M415 318 L909 318 L909 342 L415 342 L415 318 Z"/>
</clipPath>
<clipPath clipPathUnits="userSpaceOnUse" id="clipPath11">
<path d="M410 231 L1052 231 L1052 368 L410 368 L410 231 Z"/>
</clipPath>
<clipPath clipPathUnits="userSpaceOnUse" id="clipPath12">
<path d="M409 205 L1052 205 L1052 368 L409 368 L409 205 Z"/>
</clipPath>
<clipPath clipPathUnits="userSpaceOnUse" id="clipPath13">
<path d="M70 486 L70 626 L590 626 L590 486 Z"/>
</clipPath>
<clipPath clipPathUnits="userSpaceOnUse" id="clipPath14">
<path d="M215 488 L448 488 L448 512 L215 512 L215 488 Z"/>
</clipPath>
<clipPath clipPathUnits="userSpaceOnUse" id="clipPath15">
<path d="M75 513 L542 513 L542 536 L75 536 L75 513 Z"/>
</clipPath>
<clipPath clipPathUnits="userSpaceOnUse" id="clipPath16">
<path d="M75 534 L394 534 L394 557 L75 557 L75 534 Z"/>
</clipPath>
<clipPath clipPathUnits="userSpaceOnUse" id="clipPath17">
<path d="M75 555 L560 555 L560 579 L75 579 L75 555 Z"/>
</clipPath>
<clipPath clipPathUnits="userSpaceOnUse" id="clipPath18">
<path d="M75 577 L465 577 L465 601 L75 601 L75 577 Z"/>
</clipPath>
<clipPath clipPathUnits="userSpaceOnUse" id="clipPath19">
<path d="M70 511 L592 511 L592 628 L70 628 L70 511 Z"/>
</clipPath>
<clipPath clipPathUnits="userSpaceOnUse" id="clipPath20">
<path d="M69 485 L592 485 L592 628 L69 628 L69 485 Z"/>
</clipPath>
<clipPath clipPathUnits="userSpaceOnUse" id="clipPath21">
<path d="M670 486 L670 666 L1270 666 L1270 486 Z"/>
</clipPath>
<clipPath clipPathUnits="userSpaceOnUse" id="clipPath22">
<path d="M898 488 L1045 488 L1045 512 L898 512 L898 488 Z"/>
</clipPath>
<clipPath clipPathUnits="userSpaceOnUse" id="clipPath23">
<path d="M675 513 L811 513 L811 536 L675 536 L675 513 Z"/>
</clipPath>
<clipPath clipPathUnits="userSpaceOnUse" id="clipPath24">
<path d="M670 511 L1272 511 L1272 552 L670 552 L670 511 Z"/>
</clipPath>
<clipPath clipPathUnits="userSpaceOnUse" id="clipPath25">
<path d="M675 553 L1212 553 L1212 576 L675 576 L675 553 Z"/>
</clipPath>
<clipPath clipPathUnits="userSpaceOnUse" id="clipPath26">
<path d="M675 574 L1142 574 L1142 597 L675 597 L675 574 Z"/>
</clipPath>
<clipPath clipPathUnits="userSpaceOnUse" id="clipPath27">
<path d="M675 595 L842 595 L842 618 L675 618 L675 595 Z"/>
</clipPath>
<clipPath clipPathUnits="userSpaceOnUse" id="clipPath28">
<path d="M675 616 L1266 616 L1266 640 L675 640 L675 616 Z"/>
</clipPath>
<clipPath clipPathUnits="userSpaceOnUse" id="clipPath29">
<path d="M670 551 L1272 551 L1272 667 L670 667 L670 551 Z"/>
</clipPath>
<clipPath clipPathUnits="userSpaceOnUse" id="clipPath30">
<path d="M669 485 L1272 485 L1272 668 L669 668 L669 485 Z"/>
</clipPath>
<clipPath clipPathUnits="userSpaceOnUse" id="clipPath31">
<path d="M1350 746 L1350 846 L1870 846 L1870 746 Z"/>
</clipPath>
<clipPath clipPathUnits="userSpaceOnUse" id="clipPath32">
<path d="M1493 748 L1729 748 L1729 771 L1493 771 L1493 748 Z"/>
</clipPath>
<clipPath clipPathUnits="userSpaceOnUse" id="clipPath33">
<path d="M1355 772 L1530 772 L1530 795 L1355 795 L1355 772 Z"/>
</clipPath>
<clipPath clipPathUnits="userSpaceOnUse" id="clipPath34">
<path d="M1355 793 L1836 793 L1836 816 L1355 816 L1355 793 Z"/>
</clipPath>
<clipPath clipPathUnits="userSpaceOnUse" id="clipPath35">
<path d="M1350 770 L1872 770 L1872 848 L1350 848 L1350 770 Z"/>
</clipPath>
<clipPath clipPathUnits="userSpaceOnUse" id="clipPath36">
<path d="M1349 745 L1872 745 L1872 848 L1349 848 L1349 745 Z"/>
</clipPath>
<clipPath clipPathUnits="userSpaceOnUse" id="clipPath37">
<path d="M70 746 L70 866 L590 866 L590 746 Z"/>
</clipPath>
<clipPath clipPathUnits="userSpaceOnUse" id="clipPath38">
<path d="M207 748 L455 748 L455 771 L207 771 L207 748 Z"/>
</clipPath>
<clipPath clipPathUnits="userSpaceOnUse" id="clipPath39">
<path d="M75 772 L556 772 L556 795 L75 795 L75 772 Z"/>
</clipPath>
<clipPath clipPathUnits="userSpaceOnUse" id="clipPath40">
<path d="M75 793 L549 793 L549 816 L75 816 L75 793 Z"/>
</clipPath>
<clipPath clipPathUnits="userSpaceOnUse" id="clipPath41">
<path d="M75 814 L455 814 L455 837 L75 837 L75 814 Z"/>
</clipPath>
<clipPath clipPathUnits="userSpaceOnUse" id="clipPath42">
<path d="M70 770 L592 770 L592 868 L70 868 L70 770 Z"/>
</clipPath>
<clipPath clipPathUnits="userSpaceOnUse" id="clipPath43">
<path d="M69 745 L592 745 L592 868 L69 868 L69 745 Z"/>
</clipPath>
<clipPath clipPathUnits="userSpaceOnUse" id="clipPath44">
<path d="M670 746 L670 846 L1270 846 L1270 746 Z"/>
</clipPath>
<clipPath clipPathUnits="userSpaceOnUse" id="clipPath45">
<path d="M864 748 L1079 748 L1079 771 L864 771 L864 748 Z"/>
</clipPath>
<clipPath clipPathUnits="userSpaceOnUse" id="clipPath46">
<path d="M675 772 L1156 772 L1156 795 L675 795 L675 772 Z"/>
</clipPath>
<clipPath clipPathUnits="userSpaceOnUse" id="clipPath47">
<path d="M675 793 L1254 793 L1254 816 L675 816 L675 793 Z"/>
</clipPath>
<clipPath clipPathUnits="userSpaceOnUse" id="clipPath48">
<path d="M670 770 L1272 770 L1272 848 L670 848 L670 770 Z"/>
</clipPath>
<clipPath clipPathUnits="userSpaceOnUse" id="clipPath49">
<path d="M669 745 L1272 745 L1272 848 L669 848 L669 745 Z"/>
</clipPath>
<clipPath clipPathUnits="userSpaceOnUse" id="clipPath50">
<path d="M1370 166 L1370 506 L1850 506 L1850 193 L1484 193 L1484 166 Z"/>
</clipPath>
<clipPath clipPathUnits="userSpaceOnUse" id="clipPath51">
<path d="M1367 163 L1854 163 L1854 510 L1367 510 L1367 163 Z"/>
</clipPath>
<clipPath clipPathUnits="userSpaceOnUse" id="clipPath52">
<path d="M1375 168 L1481 168 L1481 191 L1375 191 L1375 168 Z"/>
</clipPath>
<clipPath clipPathUnits="userSpaceOnUse" id="clipPath53">
<path d="M1610 382 L1610 462 L1810 462 L1810 382 Z"/>
</clipPath>
<clipPath clipPathUnits="userSpaceOnUse" id="clipPath54">
<path d="M1647 384 L1775 384 L1775 407 L1647 407 L1647 384 Z"/>
</clipPath>
<clipPath clipPathUnits="userSpaceOnUse" id="clipPath55">
<path d="M1615 408 L1762 408 L1762 431 L1615 431 L1615 408 Z"/>
</clipPath>
<clipPath clipPathUnits="userSpaceOnUse" id="clipPath56">
<path d="M1610 406 L1812 406 L1812 441 L1610 441 L1610 406 Z"/>
</clipPath>
<clipPath clipPathUnits="userSpaceOnUse" id="clipPath57">
<path d="M1610 440 L1812 440 L1812 463 L1610 463 L1610 440 Z"/>
</clipPath>
<clipPath clipPathUnits="userSpaceOnUse" id="clipPath58">
<path d="M1609 381 L1812 381 L1812 464 L1609 464 L1609 381 Z"/>
</clipPath>
<clipPath clipPathUnits="userSpaceOnUse" id="clipPath59">
<path d="M1410 222 L1410 322 L1810 322 L1810 222 Z"/>
</clipPath>
<clipPath clipPathUnits="userSpaceOnUse" id="clipPath60">
<path d="M1518 224 L1705 224 L1705 247 L1518 247 L1518 224 Z"/>
</clipPath>
<clipPath clipPathUnits="userSpaceOnUse" id="clipPath61">
<path d="M1415 248 L1596 248 L1596 271 L1415 271 L1415 248 Z"/>
</clipPath>
<clipPath clipPathUnits="userSpaceOnUse" id="clipPath62">
<path d="M1410 246 L1812 246 L1812 285 L1410 285 L1410 246 Z"/>
</clipPath>
<clipPath clipPathUnits="userSpaceOnUse" id="clipPath63">
<path d="M1415 286 L1796 286 L1796 309 L1415 309 L1415 286 Z"/>
</clipPath>
<clipPath clipPathUnits="userSpaceOnUse" id="clipPath64">
<path d="M1410 284 L1812 284 L1812 323 L1410 323 L1410 284 Z"/>
</clipPath>
<clipPath clipPathUnits="userSpaceOnUse" id="clipPath65">
<path d="M1409 221 L1812 221 L1812 324 L1409 324 L1409 221 Z"/>
</clipPath>
<clipPath clipPathUnits="userSpaceOnUse" id="clipPath66">
<path d="M1410 382 L1410 443 L1530 443 L1530 382 Z"/>
</clipPath>
<clipPath clipPathUnits="userSpaceOnUse" id="clipPath67">
<path d="M1420 391 L1522 391 L1522 414 L1420 414 L1420 391 Z"/>
</clipPath>
<clipPath clipPathUnits="userSpaceOnUse" id="clipPath68">
<path d="M1435 413 L1508 413 L1508 436 L1435 436 L1435 413 Z"/>
</clipPath>
<clipPath clipPathUnits="userSpaceOnUse" id="clipPath69">
<path d="M1409 381 L1532 381 L1532 445 L1409 445 L1409 381 Z"/>
</clipPath>
<clipPath clipPathUnits="userSpaceOnUse" id="clipPath70">
<path d="M1370 192 L1852 192 L1852 508 L1370 508 L1370 192 Z"/>
</clipPath>
<clipPath clipPathUnits="userSpaceOnUse" id="clipPath71">
<path d="M10 136 L1932 136 L1932 932 L10 932 L10 136 Z"/>
</clipPath>
<clipPath clipPathUnits="userSpaceOnUse" id="clipPath72">
<path d="M650 10 L650 89 L810 89 L810 10 Z"/>
</clipPath>
<clipPath clipPathUnits="userSpaceOnUse" id="clipPath73">
<path d="M679 38 L783 38 L783 61 L679 61 L679 38 Z"/>
</clipPath>
<clipPath clipPathUnits="userSpaceOnUse" id="clipPath74">
<path d="M649 9 L812 9 L812 91 L649 91 L649 9 Z"/>
</clipPath>
<clipPath clipPathUnits="userSpaceOnUse" id="clipPath75">
<path d="M1090 10 L1090 89 L1250 89 L1250 10 Z"/>
</clipPath>
<clipPath clipPathUnits="userSpaceOnUse" id="clipPath76">
<path d="M1151 38 L1191 38 L1191 61 L1151 61 L1151 38 Z"/>
</clipPath>
<clipPath clipPathUnits="userSpaceOnUse" id="clipPath77">
<path d="M1089 9 L1252 9 L1252 91 L1089 91 L1089 9 Z"/>
</clipPath>
<clipPath clipPathUnits="userSpaceOnUse" id="clipPath78">
<path d="M-1 -1 L1942 -1 L1942 942 L-1 942 L-1 -1 Z"/>
</clipPath>
<clipPath clipPathUnits="userSpaceOnUse" id="clipPath79">
<path d="M721 366 L740 366 L740 379 L721 379 L721 366 Z"/>
</clipPath>
<clipPath clipPathUnits="userSpaceOnUse" id="clipPath80">
<path d="M1612 342 L1728 342 L1728 365 L1612 365 L1612 342 Z"/>
</clipPath>
<clipPath clipPathUnits="userSpaceOnUse" id="clipPath81">
<path d="M1704 366 L1717 366 L1717 384 L1704 384 L1704 366 Z"/>
</clipPath>
<clipPath clipPathUnits="userSpaceOnUse" id="clipPath82">
<path d="M321 626 L340 626 L340 639 L321 639 L321 626 Z"/>
</clipPath>
<clipPath clipPathUnits="userSpaceOnUse" id="clipPath83">
<path d="M1082 239 L1189 239 L1189 262 L1082 262 L1082 239 Z"/>
</clipPath>
<clipPath clipPathUnits="userSpaceOnUse" id="clipPath84">
<path d="M1307 239 L1345 239 L1345 262 L1307 262 L1307 239 Z"/>
</clipPath>
<clipPath clipPathUnits="userSpaceOnUse" id="clipPath85">
<path d="M1128 279 L1143 279 L1143 302 L1128 302 L1128 279 Z"/>
</clipPath>
<clipPath clipPathUnits="userSpaceOnUse" id="clipPath86">
<path d="M1393 265 L1412 265 L1412 276 L1393 276 L1393 265 Z"/>
</clipPath>
<clipPath clipPathUnits="userSpaceOnUse" id="clipPath87">
<path d="M1050 263 L1071 263 L1071 278 L1050 278 L1050 263 Z"/>
</clipPath>
<clipPath clipPathUnits="userSpaceOnUse" id="clipPath88">
<path d="M961 666 L980 666 L980 679 L961 679 L961 666 Z"/>
</clipPath>
<clipPath clipPathUnits="userSpaceOnUse" id="clipPath89">
<path d="M1536 459 L1606 459 L1606 482 L1536 482 L1536 459 Z"/>
</clipPath>
<clipPath clipPathUnits="userSpaceOnUse" id="clipPath90">
<path d="M1594 424 L1612 424 L1612 437 L1594 437 L1594 424 Z"/>
</clipPath>
<clipPath clipPathUnits="userSpaceOnUse" id="clipPath91">
<path d="M1103 359 L1277 359 L1277 382 L1103 382 L1103 359 Z"/>
</clipPath>
<clipPath clipPathUnits="userSpaceOnUse" id="clipPath92">
<path d="M1050 324 L1068 324 L1068 337 L1050 337 L1050 324 Z"/>
</clipPath>
<clipPath clipPathUnits="userSpaceOnUse" id="clipPath93">
<path d="M721 89 L740 89 L740 102 L721 102 L721 89 Z"/>
</clipPath>
<clipPath clipPathUnits="userSpaceOnUse" id="clipPath94">
<path d="M1079 41 L1092 41 L1092 60 L1079 60 L1079 41 Z"/>
</clipPath>
<clipPath clipPathUnits="userSpaceOnUse" id="clipPath95">
<path d="M1250 41 L1263 41 L1263 60 L1250 60 L1250 41 Z"/>
</clipPath>
</defs>
<g font-size="18" fill="url(#linearGradient1)" font-family="Helvetica, 'Nimbus Sans L', 'Liberation Sans', Arial, sans-serif" stroke-linejoin="round" stroke="url(#linearGradient1)" stroke-width="0" stroke-miterlimit="0">
<rect x="10" y="110" clip-path="url(#clipPath1)" width="1921" height="821" stroke="none"/>
</g>
<g stroke-width="1.1" font-size="18" font-family="Helvetica, 'Nimbus Sans L', 'Liberation Sans', Arial, sans-serif" stroke-linecap="butt">
<line clip-path="url(#clipPath2)" fill="none" x1="10" x2="196" y1="110" y2="110"/>
<line clip-path="url(#clipPath2)" fill="none" x1="196" x2="196" y1="110" y2="137"/>
<line clip-path="url(#clipPath2)" fill="none" x1="196" x2="1930" y1="137" y2="137"/>
<line clip-path="url(#clipPath2)" fill="none" x1="1930" x2="1930" y1="137" y2="930"/>
<line clip-path="url(#clipPath2)" fill="none" x1="1930" x2="10" y1="930" y2="930"/>
<line clip-path="url(#clipPath2)" fill="none" x1="10" x2="10" y1="930" y2="110"/>
<text x="16" y="132" clip-path="url(#clipPath3)" stroke="none" xml:space="preserve">verify_measurements </text>
<rect x="410" y="206" clip-path="url(#clipPath4)" fill="url(#linearGradient2)" width="641" height="161" stroke="none"/>
<text x="680" y="228" clip-path="url(#clipPath5)" font-style="italic" stroke="none" xml:space="preserve">MetricTask  </text>
<text x="416" y="253" clip-path="url(#clipPath6)" stroke="none" xml:space="preserve">  adaptArgsAndRun(  inputData,   inputDataIds,   outputDataIds): Struct</text>
<text x="416" y="274" clip-path="url(#clipPath7)" stroke="none" xml:space="preserve">  addStandardMetadata(  measurement: Measurement,   outputDataId: Map)</text>
<text x="416" y="295" clip-path="url(#clipPath8)" stroke="none" xml:space="preserve">  getInputDatasetTypes(  config: PipelineTaskConfig): Map</text>
<line clip-path="url(#clipPath8)" fill="none" x1="416" x2="881" y1="294" y2="294" stroke-width="0.1"/>
<text x="416" y="316" clip-path="url(#clipPath9)" font-style="italic" stroke="none" stroke-width="0.1" xml:space="preserve">  run(  args [*]): Struct</text>
<text x="416" y="338" clip-path="url(#clipPath10)" font-style="italic" stroke="none" stroke-width="0.1" xml:space="preserve">  getOutputMetric(  config: PipelineTaskConfig): MetricName</text>
<line clip-path="url(#clipPath10)" fill="none" x1="416" x2="908" y1="337" y2="337" stroke-width="0.1"/>
<line clip-path="url(#clipPath11)" fill="none" x1="410" x2="1051" y1="232" y2="232"/>
<rect x="410" y="206" clip-path="url(#clipPath12)" fill="none" width="640" rx="0" ry="0" height="160"/>
<rect x="70" y="486" clip-path="url(#clipPath13)" fill="url(#linearGradient3)" width="521" height="141" stroke="none"/>
<text x="216" y="508" clip-path="url(#clipPath14)" font-style="italic" stroke="none" xml:space="preserve">SingleMetadataMetricTask  </text>
<text x="76" y="533" clip-path="url(#clipPath15)" stroke="none" xml:space="preserve">  getInputDatasetTypes(  config: PipelineTaskConfig): Map</text>
<line clip-path="url(#clipPath15)" fill="none" x1="76" x2="541" y1="532" y2="532" stroke-width="0.1"/>
<text x="76" y="554" clip-path="url(#clipPath16)" stroke="none" stroke-width="0.1" xml:space="preserve">  run(  metadata: PropertySet [*]): Struct</text>
<text x="76" y="575" clip-path="url(#clipPath17)" font-style="italic" stroke="none" stroke-width="0.1" xml:space="preserve">  getInputMetadataKey(  config: PipelineTaskConfig): String</text>
<line clip-path="url(#clipPath17)" fill="none" x1="76" x2="559" y1="574" y2="574" stroke-width="0.1"/>
<text x="76" y="597" clip-path="url(#clipPath18)" font-style="italic" stroke="none" stroke-width="0.1" xml:space="preserve">  makeMeasurement(  values [*]): Measurement</text>
<line clip-path="url(#clipPath19)" fill="none" x1="70" x2="591" y1="512" y2="512"/>
<rect x="70" y="486" clip-path="url(#clipPath20)" fill="none" width="520" rx="0" ry="0" height="140"/>
<rect x="670" y="486" clip-path="url(#clipPath21)" fill="url(#linearGradient4)" width="601" height="181" stroke="none"/>
<text x="899" y="508" clip-path="url(#clipPath22)" font-style="italic" stroke="none" xml:space="preserve">PpdbMetricTask  </text>
<text x="676" y="533" clip-path="url(#clipPath23)" stroke="none" xml:space="preserve">  dbLoader: Task</text>
<line clip-path="url(#clipPath24)" fill="none" x1="670" x2="1271" y1="512" y2="512"/>
<text x="676" y="573" clip-path="url(#clipPath25)" stroke="none" xml:space="preserve">  adaptArgsAndRun(  dbInfo,   inputDataIds,   outputDataIds): Struct</text>
<text x="676" y="594" clip-path="url(#clipPath26)" stroke="none" xml:space="preserve">  getInputDatasetTypes(  config: PipelineTaskConfig): Map</text>
<line clip-path="url(#clipPath26)" fill="none" x1="676" x2="1141" y1="593" y2="593" stroke-width="0.1"/>
<text x="676" y="615" clip-path="url(#clipPath27)" stroke="none" stroke-width="0.1" xml:space="preserve">  run(  dbInfo): Struct</text>
<text x="676" y="636" clip-path="url(#clipPath28)" font-style="italic" stroke="none" stroke-width="0.1" xml:space="preserve">  makeMeasurement(  handle: Ppdb,   outputDataId: Map): Measurement</text>
<line clip-path="url(#clipPath29)" fill="none" x1="670" x2="1271" y1="552" y2="552"/>
<rect x="670" y="486" clip-path="url(#clipPath30)" fill="none" width="600" rx="0" ry="0" height="180"/>
<rect x="1350" y="746" clip-path="url(#clipPath31)" fill="url(#linearGradient5)" width="521" height="101" stroke="none"/>
<text x="1494" y="768" clip-path="url(#clipPath32)" stroke="none" xml:space="preserve">ConcreteGenericMetricTask  </text>
<text x="1356" y="792" clip-path="url(#clipPath33)" stroke="none" xml:space="preserve">  run(  args [*]): Struct</text>
<text x="1356" y="813" clip-path="url(#clipPath34)" stroke="none" xml:space="preserve">  getOutputMetric(  config: PipelineTaskConfig): MetricName</text>
<line clip-path="url(#clipPath34)" fill="none" x1="1356" x2="1835" y1="812" y2="812" stroke-width="0.1"/>
<line clip-path="url(#clipPath35)" fill="none" x1="1350" x2="1871" y1="771" y2="771"/>
<rect x="1350" y="746" clip-path="url(#clipPath36)" fill="none" width="520" rx="0" ry="0" height="100"/>
<rect x="70" y="746" clip-path="url(#clipPath37)" fill="url(#linearGradient6)" width="521" height="121" stroke="none"/>
<text x="208" y="768" clip-path="url(#clipPath38)" stroke="none" xml:space="preserve">ConcreteMetadataMetricTask  </text>
<text x="76" y="792" clip-path="url(#clipPath39)" stroke="none" xml:space="preserve">  getOutputMetric(  config: PipelineTaskConfig): MetricName</text>
<line clip-path="url(#clipPath39)" fill="none" x1="76" x2="555" y1="791" y2="791" stroke-width="0.1"/>
<text x="76" y="813" clip-path="url(#clipPath40)" stroke="none" stroke-width="0.1" xml:space="preserve">  getInputMetadataKey(  config: PipelineTaskConfig): String</text>
<line clip-path="url(#clipPath40)" fill="none" x1="76" x2="548" y1="812" y2="812" stroke-width="0.1"/>
<text x="76" y="834" clip-path="url(#clipPath41)" stroke="none" stroke-width="0.1" xml:space="preserve">  makeMeasurement(  values [*]): Measurement</text>
<line clip-path="url(#clipPath42)" fill="none" x1="70" x2="591" y1="771" y2="771"/>
<rect x="70" y="746" clip-path="url(#clipPath43)" fill="none" width="520" rx="0" ry="0" height="120"/>
<rect x="670" y="746" clip-path="url(#clipPath44)" fill="url(#linearGradient7)" width="601" height="101" stroke="none"/>
<text x="865" y="768" clip-path="url(#clipPath45)" stroke="none" xml:space="preserve">ConcretePpdbMetricTask  </text>
<text x="676" y="792" clip-path="url(#clipPath46)" stroke="none" xml:space="preserve">  getOutputMetric(  config: PipelineTaskConfig): MetricName</text>
<line clip-path="url(#clipPath46)" fill="none" x1="676" x2="1155" y1="791" y2="791" stroke-width="0.1"/>
<text x="676" y="813" clip-path="url(#clipPath47)" stroke="none" stroke-width="0.1" xml:space="preserve">  makeMeasurement(  handle: Ppdb,   outputDataId: Map): Measurement</text>
<line clip-path="url(#clipPath48)" fill="none" x1="670" x2="1271" y1="771" y2="771"/>
<rect x="670" y="746" clip-path="url(#clipPath49)" fill="none" width="600" rx="0" ry="0" height="100"/>
<rect x="1370" y="166" clip-path="url(#clipPath50)" fill="url(#linearGradient8)" width="481" height="341" stroke="none"/>
<line clip-path="url(#clipPath51)" fill="none" x1="1370" x2="1484" y1="166" y2="166"/>
<line clip-path="url(#clipPath51)" fill="none" x1="1484" x2="1484" y1="166" y2="193"/>
<line clip-path="url(#clipPath51)" fill="none" x1="1484" x2="1850" y1="193" y2="193"/>
<line clip-path="url(#clipPath51)" fill="none" x1="1850" x2="1850" y1="193" y2="506"/>
<line clip-path="url(#clipPath51)" fill="none" x1="1850" x2="1370" y1="506" y2="506"/>
<line clip-path="url(#clipPath51)" fill="none" x1="1370" x2="1370" y1="506" y2="166"/>
<text x="1376" y="188" clip-path="url(#clipPath52)" stroke="none" xml:space="preserve">compatibility </text>
<rect x="1610" y="382" clip-path="url(#clipPath53)" fill="url(#linearGradient9)" width="201" height="81" stroke="none"/>
<text x="1648" y="404" clip-path="url(#clipPath54)" stroke="none" xml:space="preserve">MetricRegistry  </text>
<text x="1616" y="428" clip-path="url(#clipPath55)" stroke="none" xml:space="preserve">  registry: Registry</text>
<line clip-path="url(#clipPath55)" fill="none" x1="1616" x2="1761" y1="427" y2="427" stroke-width="0.1"/>
<line clip-path="url(#clipPath56)" fill="none" x1="1610" x2="1811" y1="407" y2="407"/>
<line clip-path="url(#clipPath57)" fill="none" x1="1610" x2="1811" y1="441" y2="441"/>
<rect x="1610" y="382" clip-path="url(#clipPath58)" fill="none" width="200" rx="0" ry="0" height="80"/>
<rect x="1410" y="222" clip-path="url(#clipPath59)" fill="url(#linearGradient10)" width="401" height="101" stroke="none"/>
<text x="1519" y="244" clip-path="url(#clipPath60)" stroke="none" xml:space="preserve">MetricsControllerTask  </text>
<text x="1416" y="268" clip-path="url(#clipPath61)" stroke="none" xml:space="preserve">  metadataAdder: Task</text>
<line clip-path="url(#clipPath62)" fill="none" x1="1410" x2="1811" y1="247" y2="247"/>
<text x="1416" y="306" clip-path="url(#clipPath63)" stroke="none" xml:space="preserve">  runDataRefs(  datarefs: ButlerDataRef): Struct</text>
<line clip-path="url(#clipPath64)" fill="none" x1="1410" x2="1811" y1="285" y2="285"/>
<rect x="1410" y="222" clip-path="url(#clipPath65)" fill="none" width="400" rx="0" ry="0" height="100"/>
<rect x="1410" y="382" clip-path="url(#clipPath66)" fill="url(#linearGradient11)" width="121" height="62" stroke="none"/>
<text x="1421" y="411" clip-path="url(#clipPath67)" stroke="none" xml:space="preserve">«Decorator»</text>
<text x="1436" y="433" clip-path="url(#clipPath68)" stroke="none" xml:space="preserve">register  </text>
<rect x="1410" y="382" clip-path="url(#clipPath69)" fill="none" width="120" rx="0" ry="0" height="61"/>
<line clip-path="url(#clipPath70)" fill="none" x1="1370" x2="1850" y1="193" y2="193"/>
<line clip-path="url(#clipPath71)" fill="none" x1="10" x2="1930" y1="137" y2="137"/>
<rect x="650" y="10" clip-path="url(#clipPath72)" fill="url(#linearGradient12)" width="161" height="80" stroke="none"/>
<text x="680" y="58" clip-path="url(#clipPath73)" stroke="none" xml:space="preserve">PipelineTask</text>
<rect x="650" y="10" clip-path="url(#clipPath74)" fill="none" width="160" rx="0" ry="0" height="79"/>
<rect x="1090" y="10" clip-path="url(#clipPath75)" fill="url(#linearGradient13)" width="161" height="80" stroke="none"/>
<text x="1152" y="58" clip-path="url(#clipPath76)" stroke="none" xml:space="preserve">Task</text>
<rect x="1090" y="10" clip-path="url(#clipPath77)" fill="none" width="160" rx="0" ry="0" height="79"/>
<line clip-path="url(#clipPath78)" fill="none" text-rendering="optimizeLegibility" x1="330" x2="330" y1="486" y2="429"/>
<line clip-path="url(#clipPath78)" fill="none" text-rendering="optimizeLegibility" x1="330" x2="730" y1="429" y2="429"/>
<line clip-path="url(#clipPath78)" fill="none" text-rendering="optimizeLegibility" x1="730" x2="730" y1="429" y2="367"/>
</g>
<g stroke-linecap="butt" font-size="18" fill="white" text-rendering="optimizeLegibility" stroke="white" stroke-width="1.1">
<polygon clip-path="url(#clipPath79)" points=" 730 367 738 377 722 377" stroke="none"/>
<polygon fill="none" clip-path="url(#clipPath79)" points=" 730 367 738 377 722 377" stroke="black"/>
<line clip-path="url(#clipPath78)" fill="none" x1="1710" x2="1710" y1="323" y2="382" stroke-dasharray="5,5,5,5,5,5,5,5,5,5" stroke="black"/>
<text x="1613" y="362" clip-path="url(#clipPath80)" fill="black" stroke-dasharray="5,5,5,5,5,5,5,5,5,5" stroke="none" xml:space="preserve">initialized from</text>
<line clip-path="url(#clipPath81)" fill="none" x1="1705" x2="1710" y1="367" y2="382" stroke="black"/>
<line clip-path="url(#clipPath81)" fill="none" x1="1710" x2="1715" y1="382" y2="367" stroke="black"/>
<line clip-path="url(#clipPath78)" fill="none" x1="970" x2="970" y1="486" y2="429" stroke="black"/>
<line clip-path="url(#clipPath78)" fill="none" x1="970" x2="730" y1="429" y2="429" stroke="black"/>
<line clip-path="url(#clipPath78)" fill="none" x1="730" x2="730" y1="429" y2="367" stroke="black"/>
<polygon clip-path="url(#clipPath79)" points=" 730 367 738 377 722 377" stroke="none"/>
<polygon fill="none" clip-path="url(#clipPath79)" points=" 730 367 738 377 722 377" stroke="black"/>
<line clip-path="url(#clipPath78)" fill="none" x1="330" x2="330" y1="746" y2="627" stroke="black"/>
<polygon clip-path="url(#clipPath82)" points=" 330 627 338 637 322 637" stroke="none"/>
<polygon fill="none" clip-path="url(#clipPath82)" points=" 330 627 338 637 322 637" stroke="black"/>
<line clip-path="url(#clipPath78)" fill="none" x1="1410" x2="1250" y1="270" y2="270" stroke="black"/>
<line clip-path="url(#clipPath78)" fill="none" x1="1250" x2="1051" y1="270" y2="270" stroke="black"/>
<text x="1083" y="259" clip-path="url(#clipPath83)" fill="black" stroke="none" xml:space="preserve"> + measurers</text>
<text x="1308" y="259" clip-path="url(#clipPath84)" fill="black" stroke="none" xml:space="preserve"> 0..1</text>
<text x="1129" y="299" clip-path="url(#clipPath85)" fill="black" stroke="none" xml:space="preserve"> *</text>
<polygon fill="black" clip-path="url(#clipPath86)" points=" 1410 270 1402 274 1394 270 1402 266" stroke="none"/>
<polygon fill="none" clip-path="url(#clipPath86)" points=" 1410 270 1402 274 1394 270 1402 266" stroke="black"/>
<polygon fill="black" clip-path="url(#clipPath87)" points=" 1051 269 1053 267 1055 267 1057 269 1057 270 1069 264 1057 270 1069 276 1057 270 1057 271 1055 273 1053 273 1051 271" stroke="none"/>
<polygon fill="none" clip-path="url(#clipPath87)" points=" 1051 269 1053 267 1055 267 1057 269 1057 270 1069 264 1057 270 1069 276 1057 270 1057 271 1055 273 1053 273 1051 271" stroke="black"/>
<line clip-path="url(#clipPath78)" fill="none" x1="1610" x2="1610" y1="746" y2="610" stroke="black"/>
<line clip-path="url(#clipPath78)" fill="none" x1="1610" x2="1290" y1="610" y2="610" stroke="black"/>
<line clip-path="url(#clipPath78)" fill="none" x1="1290" x2="1290" y1="610" y2="430" stroke="black"/>
<line clip-path="url(#clipPath78)" fill="none" x1="1290" x2="730" y1="430" y2="430" stroke="black"/>
<line clip-path="url(#clipPath78)" fill="none" x1="730" x2="730" y1="430" y2="367" stroke="black"/>
<polygon clip-path="url(#clipPath79)" points=" 730 367 738 377 722 377" stroke="none"/>
<polygon fill="none" clip-path="url(#clipPath79)" points=" 730 367 738 377 722 377" stroke="black"/>
<line clip-path="url(#clipPath78)" fill="none" x1="970" x2="970" y1="746" y2="667" stroke="black"/>
<polygon clip-path="url(#clipPath88)" points=" 970 667 978 677 962 677" stroke="none"/>
<polygon fill="none" clip-path="url(#clipPath88)" points=" 970 667 978 677 962 677" stroke="black"/>
<line clip-path="url(#clipPath78)" fill="none" x1="1531" x2="1610" y1="430" y2="430" stroke-dasharray="5,5,5,5,5,5,5,5,5,5" stroke="black"/>
<text x="1537" y="479" clip-path="url(#clipPath89)" fill="black" stroke-dasharray="5,5,5,5,5,5,5,5,5,5" stroke="none" xml:space="preserve">writes to</text>
<line clip-path="url(#clipPath90)" fill="none" x1="1595" x2="1610" y1="435" y2="430" stroke="black"/>
<line clip-path="url(#clipPath90)" fill="none" x1="1610" x2="1595" y1="430" y2="425" stroke="black"/>
<line clip-path="url(#clipPath78)" fill="none" x1="1410" x2="1190" y1="410" y2="410" stroke-dasharray="5,5,5,5,5,5,5,5,5,5" stroke="black"/>
<line clip-path="url(#clipPath78)" fill="none" x1="1190" x2="1190" y1="410" y2="330" stroke-dasharray="5,5,5,5,5,5,5,5,5,5" stroke="black"/>
<line clip-path="url(#clipPath78)" fill="none" x1="1190" x2="1051" y1="330" y2="330" stroke-dasharray="5,5,5,5,5,5,5,5,5,5" stroke="black"/>
<text x="1104" y="379" clip-path="url(#clipPath91)" fill="black" stroke-dasharray="5,5,5,5,5,5,5,5,5,5" stroke="none" xml:space="preserve">decorates type object</text>
<line clip-path="url(#clipPath92)" fill="none" x1="1066" x2="1051" y1="325" y2="330" stroke="black"/>
<line clip-path="url(#clipPath92)" fill="none" x1="1051" x2="1066" y1="330" y2="335" stroke="black"/>
<line clip-path="url(#clipPath78)" fill="none" x1="970" x2="970" y1="486" y2="429" stroke="black"/>
<line clip-path="url(#clipPath78)" fill="none" x1="970" x2="730" y1="429" y2="429" stroke="black"/>
<line clip-path="url(#clipPath78)" fill="none" x1="730" x2="730" y1="429" y2="367" stroke="black"/>
<polygon clip-path="url(#clipPath79)" points=" 730 367 738 377 722 377" stroke="none"/>
<polygon fill="none" clip-path="url(#clipPath79)" points=" 730 367 738 377 722 377" stroke="black"/>
<line clip-path="url(#clipPath78)" fill="none" x1="330" x2="330" y1="746" y2="627" stroke="black"/>
<polygon clip-path="url(#clipPath82)" points=" 330 627 338 637 322 637" stroke="none"/>
<polygon fill="none" clip-path="url(#clipPath82)" points=" 330 627 338 637 322 637" stroke="black"/>
<line clip-path="url(#clipPath78)" fill="none" x1="1610" x2="1610" y1="746" y2="610" stroke="black"/>
<line clip-path="url(#clipPath78)" fill="none" x1="1610" x2="1290" y1="610" y2="610" stroke="black"/>
<line clip-path="url(#clipPath78)" fill="none" x1="1290" x2="1290" y1="610" y2="430" stroke="black"/>
<line clip-path="url(#clipPath78)" fill="none" x1="1290" x2="730" y1="430" y2="430" stroke="black"/>
<line clip-path="url(#clipPath78)" fill="none" x1="730" x2="730" y1="430" y2="367" stroke="black"/>
<polygon clip-path="url(#clipPath79)" points=" 730 367 738 377 722 377" stroke="none"/>
<polygon fill="none" clip-path="url(#clipPath79)" points=" 730 367 738 377 722 377" stroke="black"/>
<line clip-path="url(#clipPath78)" fill="none" x1="730" x2="730" y1="206" y2="90" stroke="black"/>
<polygon clip-path="url(#clipPath93)" points=" 730 90 738 100 722 100" stroke="none"/>
<polygon fill="none" clip-path="url(#clipPath93)" points=" 730 90 738 100 722 100" stroke="black"/>
<line clip-path="url(#clipPath78)" fill="none" x1="330" x2="330" y1="486" y2="429" stroke="black"/>
<line clip-path="url(#clipPath78)" fill="none" x1="330" x2="730" y1="429" y2="429" stroke="black"/>
<line clip-path="url(#clipPath78)" fill="none" x1="730" x2="730" y1="429" y2="367" stroke="black"/>
<polygon clip-path="url(#clipPath79)" points=" 730 367 738 377 722 377" stroke="none"/>
<polygon fill="none" clip-path="url(#clipPath79)" points=" 730 367 738 377 722 377" stroke="black"/>
<line clip-path="url(#clipPath78)" fill="none" x1="811" x2="1090" y1="50" y2="50" stroke="black"/>
<polygon clip-path="url(#clipPath94)" points=" 1090 50 1080 58 1080 42" stroke="none"/>
<polygon fill="none" clip-path="url(#clipPath94)" points=" 1090 50 1080 58 1080 42" stroke="black"/>
<line clip-path="url(#clipPath78)" fill="none" x1="970" x2="970" y1="746" y2="667" stroke="black"/>
<polygon clip-path="url(#clipPath88)" points=" 970 667 978 677 962 677" stroke="none"/>
<polygon fill="none" clip-path="url(#clipPath88)" points=" 970 667 978 677 962 677" stroke="black"/>
<line clip-path="url(#clipPath78)" fill="none" x1="1610" x2="1610" y1="222" y2="50" stroke="black"/>
<line clip-path="url(#clipPath78)" fill="none" x1="1610" x2="1251" y1="50" y2="50" stroke="black"/>
<polygon clip-path="url(#clipPath95)" points=" 1251 50 1261 42 1261 58" stroke="none"/>
<polygon fill="none" clip-path="url(#clipPath95)" points=" 1251 50 1261 42 1261 58" stroke="black"/>
<line clip-path="url(#clipPath78)" fill="none" x1="1410" x2="1250" y1="270" y2="270" stroke="black"/>
<line clip-path="url(#clipPath78)" fill="none" x1="1250" x2="1051" y1="270" y2="270" stroke="black"/>
<text x="1083" y="259" clip-path="url(#clipPath83)" fill="black" stroke="none" xml:space="preserve"> + measurers</text>
<text x="1308" y="259" clip-path="url(#clipPath84)" fill="black" stroke="none" xml:space="preserve"> 0..1</text>
<text x="1129" y="299" clip-path="url(#clipPath85)" fill="black" stroke="none" xml:space="preserve"> *</text>
<polygon fill="black" clip-path="url(#clipPath86)" points=" 1410 270 1402 274 1394 270 1402 266" stroke="none"/>
<polygon fill="none" clip-path="url(#clipPath86)" points=" 1410 270 1402 274 1394 270 1402 266" stroke="black"/>
<polygon fill="black" clip-path="url(#clipPath87)" points=" 1051 269 1053 267 1055 267 1057 269 1057 270 1069 264 1057 270 1069 276 1057 270 1057 271 1055 273 1053 273 1051 271" stroke="none"/>
<polygon fill="none" clip-path="url(#clipPath87)" points=" 1051 269 1053 267 1055 267 1057 269 1057 270 1069 264 1057 270 1069 276 1057 270 1057 271 1055 273 1053 273 1051 271" stroke="black"/>
<line clip-path="url(#clipPath78)" fill="none" x1="1710" x2="1710" y1="323" y2="382" stroke-dasharray="5,5,5,5,5,5,5,5,5,5" stroke="black"/>
<text x="1613" y="362" clip-path="url(#clipPath80)" fill="black" stroke-dasharray="5,5,5,5,5,5,5,5,5,5" stroke="none" xml:space="preserve">initialized from</text>
<line clip-path="url(#clipPath81)" fill="none" x1="1705" x2="1710" y1="367" y2="382" stroke="black"/>
<line clip-path="url(#clipPath81)" fill="none" x1="1710" x2="1715" y1="382" y2="367" stroke="black"/>
<line clip-path="url(#clipPath78)" fill="none" x1="1531" x2="1610" y1="430" y2="430" stroke-dasharray="5,5,5,5,5,5,5,5,5,5" stroke="black"/>
<text x="1537" y="479" clip-path="url(#clipPath89)" fill="black" stroke-dasharray="5,5,5,5,5,5,5,5,5,5" stroke="none" xml:space="preserve">writes to</text>
<line clip-path="url(#clipPath90)" fill="none" x1="1595" x2="1610" y1="435" y2="430" stroke="black"/>
<line clip-path="url(#clipPath90)" fill="none" x1="1610" x2="1595" y1="430" y2="425" stroke="black"/>
<line clip-path="url(#clipPath78)" fill="none" x1="1410" x2="1190" y1="410" y2="410" stroke-dasharray="5,5,5,5,5,5,5,5,5,5" stroke="black"/>
<line clip-path="url(#clipPath78)" fill="none" x1="1190" x2="1190" y1="410" y2="330" stroke-dasharray="5,5,5,5,5,5,5,5,5,5" stroke="black"/>
<line clip-path="url(#clipPath78)" fill="none" x1="1190" x2="1051" y1="330" y2="330" stroke-dasharray="5,5,5,5,5,5,5,5,5,5" stroke="black"/>
<text x="1104" y="379" clip-path="url(#clipPath91)" fill="black" stroke-dasharray="5,5,5,5,5,5,5,5,5,5" stroke="none" xml:space="preserve">decorates type object</text>
<line clip-path="url(#clipPath92)" fill="none" x1="1066" x2="1051" y1="325" y2="330" stroke="black"/>
<line clip-path="url(#clipPath92)" fill="none" x1="1051" x2="1066" y1="330" y2="335" stroke="black"/>
</g>
</g>
</svg>
